The.Omen[2006]BDrip[Eng-hindi].dual audio.SiNiSTER-TdT








*******************************************************************************
The Omen[2006]BDrip[Eng-hindi].dual audio.SiNiSTER-TDT 
*******************************************************************************

-------------------------------------------------------------------------------
General Information
-------------------------------------------------------------------------------
General
Unique ID : 189342109459128828037652505225594457881 (0x8E71F6BDD4849979A6005CECA098CF19)
Complete name : E:The Omen[2006]BDrip[Eng-hindi].dual audio.SiNiSTER-TdTThe Omen[2006]BDrip[Eng-hindi].dual audio.SiNiSTER-TdT.mkv
Format : Matroska
File size : 1.66 GiB
Duration : 1h 45mn
Overall bit rate : 2 245 Kbps
Movie name : The Omen[2006]BDrip[Eng-hindi].Dual Audio.SiNiSTER+TDT
Encoded date : UTC 2011-12-19 14:32:47
Writing application : mkvmerge v4.3.0 ('Escape from the Island') built on Sep 5 2010 10:30:51
Writing library : libebml v1.0.0 + libmatroska v1.0.0

Video
ID : 1
Format : AVC
Format/Info : Advanced Video Codec
Format profile : High@L3.1
Format settings, CABAC : Yes
Format settings, ReFrames : 2 frames
Muxing mode : Header stripping
Codec ID : V_MPEG4/ISO/AVC
Duration : 1h 45mn
Bit rate : 1 995 Kbps
Width : 720 pixels
Height : 400 pixels
Display aspect ratio : 16:9
Frame rate : 25.000 fps
Color space : YUV
Chroma subsampling : 4:2:0
Bit depth : 8 bits
Scan type : Progressive
Bits/(Pixel*Frame) : 0.277
Stream size : 1.45 GiB (87%)
Title : The Omen Bdrip RANGER_TDT
Writing library : x264 core 1679598476Dec 5 2009
Encoding settings : cabac=1 / ref=1 / deblock=0:0:0 / analyse=0x3:0x113 / me=hex / subme=5 / psy=1 / psy_rd=0.0:0.0 / mixed_ref=0 / me_range=16 / chroma_me=1 / trellis=0 / 8x8dct=1 / cqm=0 / deadzone=21,11 / chroma_qp_offset=0 / threads=1 / nr=0 / decimate=1 / mbaff=0 / bframes=3 / b_pyramid=0 / b_adapt=1 / b_bias=0 / direct=1 / wpredb=1 / keyint=270 / keyint_min=1 / scenecut=40 / rc_lookahead=40 / rc=abr / mbtree=1 / bitrate=1995 / ratetol=1.0 / qcomp=0.50 / qpmin=2 / qpmax=31 / qpstep=4 / ip_ratio=1.40 / aq=1:0.30
Language : Russian

Audio #1
ID : 2
Format : MPEG Audio
Format version : Version 1
Format profile : Layer 3
Mode : Joint stereo
Mode extension : MS Stereo
Muxing mode : Header stripping
Codec ID : A_MPEG/L3
Codec ID/Hint : MP3
Duration : 1h 45mn
Bit rate mode : Constant
Bit rate : 128 Kbps
Channel(s) : 2 channels
Sampling rate : 48.0 KHz
Compression mode : Lossy
Delay relative to video : 23s 400ms
Stream size : 96.8 MiB (6%)
Title : SiNiSTER/TDT
Writing library : LAME3.98
Language : Hindi

Audio #2
ID : 3
Format : MPEG Audio
Format version : Version 1
Format profile : Layer 3
Muxing mode : Header stripping
Codec ID : A_MPEG/L3
Codec ID/Hint : MP3
Duration : 1h 45mn
Bit rate mode : Constant
Bit rate : 112 Kbps
Channel(s) : 2 channels
Sampling rate : 48.0 KHz
Compression mode : Lossy
Delay relative to video : 400ms
Stream size : 84.7 MiB (5%)
Title : SiNiSTER/TDT
Language : English






Greets(TDT):
Team TDT,Chaos,DDR,DET,HDDR,DUS,ExD,TNT,XMR,IcTV,..etc



Greets(SiNiSTER):
DarkScene,HDScene,Noir,Chaos,CrEwSaDe,blackjesus,ViSiON,HDLiTE,UnKnOwN,EP1C,IMAGiNE,
FLAWL3SS,Rx,ELEKTRI4KA,CiNEDUB,BDK,SAFCuk009,HiVE-CM8,Etrg..... and everybody else we 
respect.. u know who u are

-------------------------------------------------------------------------------
Post Information
-------------------------------------------------------------------------------
Encoded by...........: SiNiSTER & TDT its a combined release of Both the groups.

Have sumthing to offer..looking for suppliers... cammers,cams,screeners, audio
supplier.. and any pre retail DVD/BR any RC...if u can provide any email us at
sinister@hushmail.me


